<?xml version="1.0"?>
<VTKFile type="UnstructuredGrid" version="1.0" byte_order="LittleEndian">
  <UnstructuredGrid>
    <Piece NumberOfPoints="104" NumberOfCells="104">
      <Points>
        <DataArray type="Float32" NumberOfComponents="3" format="ascii">
          -9.717255e-03 4.529902e-03 -3.333689e-03
          -9.717272e-03 4.240707e-03 -3.030659e-03
          -9.717296e-03 4.240650e-03 -3.333690e-03
          -9.717288e-03 3.951521e-03 -2.727628e-03
          -9.717313e-03 3.951460e-03 -3.030659e-03
          -9.717337e-03 3.951399e-03 -3.333691e-03
          -9.724293e-03 3.374533e-03 -3.636774e-03
          -9.724347e-03 3.085269e-03 -3.636776e-03
          -9.724401e-03 2.796005e-03 -3.636779e-03
          -9.747253e-03 -6.690502e-04 -3.334939e-03
          -9.747339e-03 -9.582939e-04 -3.031904e-03
          -9.747325e-03 -9.583826e-04 -3.334939e-03
          -9.750325e-03 -1.250318e-03 -2.728683e-03
          -9.750309e-03 -1.250405e-03 -3.031717e-03
          -9.750292e-03 -1.250493e-03 -3.334753e-03
          -9.751320e-03 -1.546964e-03 -3.637144e-03
          -9.750405e-03 -1.551301e-03 -4.546863e-03
          -9.751378e-03 -1.836312e-03 -3.637141e-03
          -9.751436e-03 -2.125661e-03 -3.637139e-03
          -9.751494e-03 -2.415010e-03 -3.637137e-03
          -1.062677e-02 1.055737e-03 -3.636686e-03
          -1.091204e-02 3.656548e-03 -3.333464e-03
          -1.091205e-02 3.656512e-03 -3.636496e-03
          -1.091210e-02 3.367234e-03 -3.636497e-03
          -1.091214e-02 3.077955e-03 -3.636497e-03
          -1.091742e-02 1.923179e-03 -3.333584e-03
          -1.092306e-02 1.055682e-03 -3.333646e-03
          -1.092307e-02 1.055633e-03 -3.636679e-03
          -1.092312e-02 7.663763e-04 -3.333646e-03
          -1.092312e-02 7.663273e-04 -3.636679e-03
          -1.092317e-02 4.770705e-04 -3.333646e-03
          -1.092317e-02 4.770212e-04 -3.636679e-03
          -1.092323e-02 1.877151e-04 -3.636680e-03
          -1.121349e-02 6.242572e-03 -9.877666e-07
          -1.121653e-02 5.952801e-03 -9.791335e-07
          -1.121355e-02 5.374801e-03 -9.824847e-07
          -1.151077e-02 5.951330e-03 -9.264252e-07
          -1.240065e-02 7.682402e-03 -9.527580e-07
          -1.240068e-02 7.393194e-03 -9.490756e-07
          -1.269818e-02 7.969366e-03 -9.273483e-07
          -1.269838e-02 7.680996e-03 -8.762427e-07
          -1.299452e-02 8.258658e-03 -9.241601e-07
          -1.299471e-02 7.970228e-03 -8.763106e-07
          -1.329087e-02 8.548011e-03 -9.177133e-07
          -1.329104e-02 8.259463e-03 -8.763785e-07
          -1.358724e-02 8.837425e-03 -9.080076e-07
          -1.358736e-02 8.548702e-03 -8.764463e-07
          -1.388358e-02 9.126725e-03 -9.048185e-07
          -1.388369e-02 8.837942e-03 -8.765142e-07
          -1.388370e-02 8.548665e-03 -8.759044e-07
          -1.477548e-02 9.705376e-03 -8.943530e-07
          -2.574411e-02 6.224239e-03 -1.000364e-06
          -9.721693e-03 4.517139e-03 -3.333420e-03
          -9.721922e-03 4.229755e-03 -3.030399e-03
          -9.722357e-03 4.228782e-03 -3.333439e-03
          -9.722147e-03 3.942499e-03 -2.727370e-03
          -9.722584e-03 3.941462e-03 -3.030414e-03
          -9.723021e-03 3.940425e-03 -3.333458e-03
          -9.725159e-03 3.362285e-03 -3.636572e-03
          -9.726042e-03 3.073710e-03 -3.636610e-03
          -9.726925e-03 2.785134e-03 -3.636648e-03
          -9.740951e-03 -6.833323e-04 -3.333946e-03
          -9.742377e-03 -9.715172e-04 -3.030859e-03
          -9.742145e-03 -9.730510e-04 -3.333952e-03
          -9.743893e-03 -1.259750e-03 -2.727765e-03
          -9.743613e-03 -1.261264e-03 -3.030861e-03
          -9.743333e-03 -1.262778e-03 -3.333956e-03
          -9.744010e-03 -1.554274e-03 -3.637015e-03
          -9.742973e-03 -1.557992e-03 -4.546121e-03
          -9.744965e-03 -1.844259e-03 -3.636978e-03
          -9.745920e-03 -2.134244e-03 -3.636940e-03
          -9.746875e-03 -2.424228e-03 -3.636903e-03
          -1.062293e-02 1.046498e-03 -3.636534e-03
          -1.091189e-02 3.646180e-03 -3.333254e-03
          -1.091211e-02 3.645565e-03 -3.636304e-03
          -1.091279e-02 3.356753e-03 -3.636319e-03
          -1.091347e-02 3.067942e-03 -3.636333e-03
          -1.091655e-02 1.912965e-03 -3.333320e-03
          -1.091926e-02 1.045693e-03 -3.333343e-03
          -1.091933e-02 1.044850e-03 -3.636418e-03
          -1.092016e-02 7.564242e-04 -3.333346e-03
          -1.092020e-02 7.555760e-04 -3.636425e-03
          -1.092105e-02 4.671553e-04 -3.333349e-03
          -1.092107e-02 4.663020e-04 -3.636431e-03
          -1.092194e-02 1.770280e-04 -3.636437e-03
          -1.120303e-02 6.244995e-03 -1.360157e-07
          -1.120335e-02 5.956533e-03 -1.087167e-07
          -1.120398e-02 5.379608e-03 -5.411306e-08
          -1.150042e-02 5.955531e-03 -4.660677e-08
          -1.238995e-02 7.685126e-03 -5.907746e-08
          -1.239023e-02 7.396365e-03 -2.748550e-08
          -1.268665e-02 7.973463e-03 -5.509062e-08
          -1.268674e-02 7.684637e-03 -3.323840e-08
          -1.298333e-02 8.261860e-03 -5.413563e-08
          -1.298341e-02 7.973011e-03 -3.154054e-08
          -1.328000e-02 8.550305e-03 -5.466547e-08
          -1.328009e-02 8.261432e-03 -3.132744e-08
          -1.357668e-02 8.838795e-03 -5.668031e-08
          -1.357676e-02 8.549900e-03 -3.259930e-08
          -1.387336e-02 9.127331e-03 -6.018036e-08
          -1.387344e-02 8.838413e-03 -3.535632e-08
          -1.387352e-02 8.549494e-03 -1.053199e-08
          -1.476349e-02 9.704230e-03 -5.277267e-08
          -2.573296e-02 6.224384e-03 -3.127118e-08
        </DataArray>
      </Points>
      <Cells>
        <DataArray type="Int32" Name="connectivity" format="ascii">
          0 1 2 3 4 5 6 7 8 9 10 11 12 13 14 15 16 17 18 19 20 21 22 23 24 25 26 27 28 29 30 31 32 33 34 35 36 37 38 39 40 41 42 43 44 45 46 47 48 49 50 51 52 53 54 55 56 57 58 59 60 61 62 63 64 65 66 67 68 69 70 71 72 73 74 75 76 77 78 79 80 81 82 83 84 85 86 87 88 89 90 91 92 93 94 95 96 97 98 99 100 101 102 103
        </DataArray>
        <DataArray type="Int32" Name="offsets" format="ascii">
          1 2 3 4 5 6 7 8 9 10 11 12 13 14 15 16 17 18 19 20 21 22 23 24 25 26 27 28 29 30 31 32 33 34 35 36 37 38 39 40 41 42 43 44 45 46 47 48 49 50 51 52 53 54 55 56 57 58 59 60 61 62 63 64 65 66 67 68 69 70 71 72 73 74 75 76 77 78 79 80 81 82 83 84 85 86 87 88 89 90 91 92 93 94 95 96 97 98 99 100 101 102 103 104
        </DataArray>
        <DataArray type="UInt8" Name="types" format="ascii">
          1 1 1 1 1 1 1 1 1 1 1 1 1 1 1 1 1 1 1 1 1 1 1 1 1 1 1 1 1 1 1 1 1 1 1 1 1 1 1 1 1 1 1 1 1 1 1 1 1 1 1 1 1 1 1 1 1 1 1 1 1 1 1 1 1 1 1 1 1 1 1 1 1 1 1 1 1 1 1 1 1 1 1 1 1 1 1 1 1 1 1 1 1 1 1 1 1 1 1 1 1 1 1 1
        </DataArray>
      </Cells>
      <PointData>
        <DataArray type="Int32" Name="ParticleID" format="ascii">
          2187 2220 2221 2253 2254 2255 2324 2358 2392 2799 2832 2833 2865 2866 2867 2902 2905 2936 2970 3004 18916 24049 24050 24084 24118 24253 24355 24356 24389 24390 24423 24424 24458 29172 29206 29274 34646 50762 50796 56168 56202 61574 61608 66980 67014 72386 72420 77792 77826 77860 94044 295732 2187 2220 2221 2253 2254 2255 2324 2358 2392 2799 2832 2833 2865 2866 2867 2902 2905 2936 2970 3004 18916 24049 24050 24084 24118 24253 24355 24356 24389 24390 24423 24424 24458 29172 29206 29274 34646 50762 50796 56168 56202 61574 61608 66980 67014 72386 72420 77792 77826 77860 94044 295732
        </DataArray>
        <DataArray type="Int32" Name="source" format="ascii">
          0 0 0 0 0 0 0 0 0 0 0 0 0 0 0 0 0 0 0 0 0 0 0 0 0 0 0 0 0 0 0 0 0 0 0 0 0 0 0 0 0 0 0 0 0 0 0 0 0 0 0 0 1 1 1 1 1 1 1 1 1 1 1 1 1 1 1 1 1 1 1 1 1 1 1 1 1 1 1 1 1 1 1 1 1 1 1 1 1 1 1 1 1 1 1 1 1 1 1 1 1 1 1 1
        </DataArray>
        <DataArray type="Float32" Name="error_magnitude" format="ascii">
          1.3515274e-05 1.1901831e-05 1.2904998e-05 1.0250525e-05 1.1305459e-05 1.236116e-05 1.2280038e-05 1.1684151e-05 1.1161109e-05 1.5642512e-05 1.4162228e-05 1.5587666e-05 1.14536315e-05 1.2785828e-05 1.4141827e-05 1.0339495e-05 1.0027599e-05 1.0213241e-05 1.0204695e-05 1.03140455e-05 1.0003358e-05 1.03710945e-05 1.0949003e-05 1.0504284e-05 1.0102207e-05 1.0254963e-05 1.0694171e-05 1.1415739e-05 1.0388047e-05 1.1143953e-05 1.0143368e-05 1.0926709e-05 1.0767263e-05 1.0777966e-05 1.37255165e-05 1.0751252e-05 1.1205264e-05 1.1072201e-05 1.09612465e-05 1.2260913e-05 1.2224281e-05 1.1672426e-05 1.1663264e-05 1.1141776e-05 1.1156414e-05 1.0680406e-05 1.0701716e-05 1.0272732e-05 1.029653e-05 1.0246189e-05 1.2079853e-05 1.1202489e-05 1.3515274e-05 1.1901831e-05 1.2904998e-05 1.0250525e-05 1.1305459e-05 1.236116e-05 1.2280038e-05 1.1684151e-05 1.1161109e-05 1.5642512e-05 1.4162228e-05 1.5587666e-05 1.14536315e-05 1.2785828e-05 1.4141827e-05 1.0339495e-05 1.0027599e-05 1.0213241e-05 1.0204695e-05 1.03140455e-05 1.0003358e-05 1.03710945e-05 1.0949003e-05 1.0504284e-05 1.0102207e-05 1.0254963e-05 1.0694171e-05 1.1415739e-05 1.0388047e-05 1.1143953e-05 1.0143368e-05 1.0926709e-05 1.0767263e-05 1.0777966e-05 1.37255165e-05 1.0751252e-05 1.1205264e-05 1.1072201e-05 1.09612465e-05 1.2260913e-05 1.2224281e-05 1.1672426e-05 1.1663264e-05 1.1141776e-05 1.1156414e-05 1.0680406e-05 1.0701716e-05 1.0272732e-05 1.029653e-05 1.0246189e-05 1.2079853e-05 1.1202489e-05
        </DataArray>
        <DataArray type="Int32" Name="status" format="ascii">
          0 0 0 0 0 0 0 0 0 0 0 0 0 0 0 0 0 0 0 0 0 0 0 0 0 0 0 0 0 0 0 0 0 0 0 0 0 0 0 0 0 0 0 0 0 0 0 0 0 0 0 0 0 0 0 0 0 0 0 0 0 0 0 0 0 0 0 0 0 0 0 0 0 0 0 0 0 0 0 0 0 0 0 0 0 0 0 0 0 0 0 0 0 0 0 0 0 0 0 0 0 0 0 0
        </DataArray>
      </PointData>
    </Piece>
  </UnstructuredGrid>
</VTKFile>
