<?xml version="1.0"?>
<VTKFile type="UnstructuredGrid" version="1.0" byte_order="LittleEndian">
  <UnstructuredGrid>
    <Piece NumberOfPoints="476" NumberOfCells="476">
      <Points>
        <DataArray type="Float32" NumberOfComponents="3" format="ascii">
          -9.627616e-03 6.266046e-03 -3.636575e-03
          -9.628794e-03 4.544439e-03 -3.333806e-03
          -9.628810e-03 4.255245e-03 -3.030776e-03
          -9.628835e-03 4.255187e-03 -3.333807e-03
          -9.628827e-03 3.966058e-03 -2.727745e-03
          -9.628851e-03 3.965997e-03 -3.030777e-03
          -9.628876e-03 3.965936e-03 -3.333808e-03
          -9.638538e-03 3.677540e-03 -2.727752e-03
          -9.638561e-03 3.677475e-03 -3.030784e-03
          -9.638585e-03 3.677411e-03 -3.333815e-03
          -9.639135e-03 3.674450e-03 -3.637051e-03
          -9.637583e-03 3.391121e-03 -3.636963e-03
          -9.639186e-03 3.383813e-03 -3.940339e-03
          -9.639203e-03 3.383751e-03 -4.243370e-03
          -9.637637e-03 3.101857e-03 -3.636965e-03
          -9.639238e-03 3.094547e-03 -3.940341e-03
          -9.636720e-03 2.817893e-03 -1.818475e-03
          -9.637692e-03 2.812593e-03 -3.636968e-03
          -9.639290e-03 2.805280e-03 -3.940343e-03
          -9.668404e-03 -6.517872e-04 -3.335463e-03
          -9.668490e-03 -9.410308e-04 -3.032428e-03
          -9.668476e-03 -9.411197e-04 -3.335463e-03
          -9.671476e-03 -1.233054e-03 -2.729207e-03
          -9.671460e-03 -1.233142e-03 -3.032242e-03
          -9.671444e-03 -1.233230e-03 -3.335277e-03
          -9.673658e-03 -1.533880e-03 -3.637592e-03
          -9.674594e-03 -1.820907e-03 -3.637545e-03
          -9.672668e-03 -1.827885e-03 -3.941257e-03
          -9.672645e-03 -1.827952e-03 -4.244288e-03
          -9.674652e-03 -2.110255e-03 -3.637543e-03
          -9.674711e-03 -2.399604e-03 -3.637540e-03
          -9.964918e-03 -3.868171e-03 -1.514170e-03
          -1.023401e-02 3.669513e-03 -3.333517e-03
          -1.023402e-02 3.669462e-03 -3.636549e-03
          -1.023407e-02 3.380191e-03 -3.636550e-03
          -1.024862e-02 1.069605e-03 -3.333765e-03
          -1.024863e-02 1.069535e-03 -3.636798e-03
          -1.024869e-02 7.802296e-04 -3.636799e-03
          -1.024875e-02 4.909244e-04 -3.636800e-03
          -1.051854e-02 6.265737e-03 -4.265622e-07
          -1.051854e-02 6.265731e-03 -3.034540e-04
          -1.051855e-02 6.265724e-03 -6.064815e-04
          -1.051856e-02 6.265718e-03 -9.095089e-04
          -1.051857e-02 6.265711e-03 -1.212536e-03
          -1.052126e-02 6.261892e-03 -3.636399e-03
          -1.053031e-02 3.669511e-03 -2.727450e-03
          -1.053033e-02 3.669468e-03 -3.030482e-03
          -1.053034e-02 3.669425e-03 -3.333514e-03
          -1.053036e-02 3.669382e-03 -3.636545e-03
          -1.053037e-02 3.380198e-03 -3.030483e-03
          -1.053039e-02 3.380153e-03 -3.333515e-03
          -1.053040e-02 3.380107e-03 -3.636546e-03
          -1.053043e-02 3.090880e-03 -3.333516e-03
          -1.053045e-02 3.090832e-03 -3.636547e-03
          -1.053049e-02 2.801558e-03 -3.636548e-03
          -1.053054e-02 2.512278e-03 -3.636550e-03
          -1.054492e-02 1.069550e-03 -3.030725e-03
          -1.054493e-02 1.069490e-03 -3.333758e-03
          -1.054493e-02 1.069431e-03 -3.636791e-03
          -1.054498e-02 7.802447e-04 -3.030725e-03
          -1.054499e-02 7.801851e-04 -3.333758e-03
          -1.054499e-02 7.801253e-04 -3.636792e-03
          -1.054505e-02 4.908799e-04 -3.333759e-03
          -1.054505e-02 4.908197e-04 -3.636792e-03
          -1.054511e-02 2.015746e-04 -3.333759e-03
          -1.054510e-02 2.015141e-04 -3.636793e-03
          -1.054516e-02 -8.774171e-05 -3.333759e-03
          -1.055814e-02 -1.541358e-03 -3.636478e-03
          -1.055819e-02 -1.830697e-03 -3.636476e-03
          -1.055823e-02 -2.120037e-03 -3.636474e-03
          -1.055828e-02 -2.409376e-03 -3.636472e-03
          -1.081490e-02 6.265664e-03 -4.229492e-07
          -1.081491e-02 6.265658e-03 -3.034507e-04
          -1.081492e-02 6.265652e-03 -6.064784e-04
          -1.081492e-02 6.265646e-03 -9.095061e-04
          -1.081493e-02 6.265640e-03 -1.212534e-03
          -1.081758e-02 6.261882e-03 -3.030336e-03
          -1.081760e-02 6.261863e-03 -3.333367e-03
          -1.081761e-02 6.261844e-03 -3.636397e-03
          -1.081492e-02 5.976413e-03 -4.212921e-07
          -1.081493e-02 5.976406e-03 -3.034491e-04
          -1.081494e-02 5.976400e-03 -6.064769e-04
          -1.081494e-02 5.976394e-03 -9.095047e-04
          -1.081495e-02 5.976387e-03 -1.212532e-03
          -1.081762e-02 5.972599e-03 -3.333366e-03
          -1.081763e-02 5.972578e-03 -3.636397e-03
          -1.081496e-02 5.687147e-03 -6.064754e-04
          -1.081497e-02 5.687140e-03 -9.095033e-04
          -1.081497e-02 5.687133e-03 -1.212531e-03
          -1.081765e-02 5.683311e-03 -3.636396e-03
          -1.082666e-02 3.669408e-03 -2.727447e-03
          -1.082667e-02 3.669373e-03 -3.030478e-03
          -1.082668e-02 3.669337e-03 -3.333510e-03
          -1.082669e-02 3.669301e-03 -3.636542e-03
          -1.082670e-02 3.380136e-03 -2.727447e-03
          -1.082671e-02 3.380098e-03 -3.030479e-03
          -1.082672e-02 3.380061e-03 -3.333511e-03
          -1.082673e-02 3.380023e-03 -3.636542e-03
          -1.082674e-02 3.090864e-03 -2.727448e-03
          -1.082676e-02 3.090824e-03 -3.030479e-03
          -1.082677e-02 3.090784e-03 -3.333511e-03
          -1.082678e-02 3.090744e-03 -3.636543e-03
          -1.082680e-02 2.801550e-03 -3.030480e-03
          -1.082681e-02 2.801508e-03 -3.333512e-03
          -1.082682e-02 2.801466e-03 -3.636544e-03
          -1.082701e-02 2.511648e-03 -3.333503e-03
          -1.082702e-02 2.511605e-03 -3.636535e-03
          -1.083376e-02 1.936743e-03 -3.333668e-03
          -1.083380e-02 1.647500e-03 -3.030636e-03
          -1.083381e-02 1.647452e-03 -3.333669e-03
          -1.083385e-02 1.358258e-03 -2.727603e-03
          -1.083386e-02 1.358210e-03 -3.030636e-03
          -1.083387e-02 1.358161e-03 -3.333669e-03
          -1.084122e-02 1.069473e-03 -2.727684e-03
          -1.084122e-02 1.069425e-03 -3.030717e-03
          -1.084123e-02 1.069376e-03 -3.333751e-03
          -1.084123e-02 1.069327e-03 -3.636784e-03
          -1.084128e-02 7.801683e-04 -2.727684e-03
          -1.084128e-02 7.801193e-04 -3.030717e-03
          -1.084128e-02 7.800703e-04 -3.333751e-03
          -1.084129e-02 7.800211e-04 -3.636784e-03
          -1.084134e-02 4.908632e-04 -2.727684e-03
          -1.084134e-02 4.908138e-04 -3.030717e-03
          -1.084134e-02 4.907645e-04 -3.333751e-03
          -1.084134e-02 4.907150e-04 -3.636784e-03
          -1.084139e-02 2.015580e-04 -2.727684e-03
          -1.084139e-02 2.015084e-04 -3.030717e-03
          -1.084139e-02 2.014587e-04 -3.333751e-03
          -1.084139e-02 2.014089e-04 -3.636785e-03
          -1.084127e-02 -8.978176e-05 -3.333641e-03
          -1.085442e-02 -1.541360e-03 -3.030399e-03
          -1.085441e-02 -1.541407e-03 -3.333434e-03
          -1.085440e-02 -1.541453e-03 -3.636469e-03
          -1.085446e-02 -1.830700e-03 -3.030397e-03
          -1.085445e-02 -1.830745e-03 -3.333432e-03
          -1.085444e-02 -1.830789e-03 -3.636467e-03
          -1.085451e-02 -2.120039e-03 -3.030395e-03
          -1.085450e-02 -2.120083e-03 -3.333430e-03
          -1.085449e-02 -2.120126e-03 -3.636465e-03
          -1.085455e-02 -2.409379e-03 -3.030393e-03
          -1.085454e-02 -2.409420e-03 -3.333428e-03
          -1.085453e-02 -2.409462e-03 -3.636463e-03
          -1.086056e-02 -2.988274e-03 -1.209932e-03
          -1.086008e-02 -2.990177e-03 -2.423124e-03
          -1.086059e-02 -3.277636e-03 -1.209928e-03
          -1.086012e-02 -3.279533e-03 -2.423120e-03
          -1.086063e-02 -3.566997e-03 -1.209923e-03
          -1.086015e-02 -3.568888e-03 -2.423117e-03
          -1.112831e-02 5.963788e-03 -1.082232e-06
          -1.142467e-02 5.957879e-03 -9.001527e-07
          -1.201370e-02 3.661966e-03 -1.211722e-03
          -1.204660e-02 -7.639926e-03 -2.421289e-03
          -1.231417e-02 7.688185e-03 -9.711299e-07
          -1.231420e-02 7.398977e-03 -9.674442e-07
          -1.261270e-02 7.973051e-03 -9.323297e-07
          -1.261309e-02 7.685556e-03 -8.321561e-07
          -1.261149e-02 1.037487e-03 -1.211330e-03
          -1.261155e-02 7.482045e-04 -9.082930e-04
          -1.261155e-02 7.481875e-04 -1.211327e-03
          -1.261156e-02 7.481706e-04 -1.514362e-03
          -1.261156e-02 7.481536e-04 -1.817396e-03
          -1.261195e-02 7.473072e-04 -2.726699e-03
          -1.261184e-02 4.589102e-04 -6.052319e-04
          -1.261185e-02 4.588930e-04 -9.082665e-04
          -1.261185e-02 4.588758e-04 -1.211301e-03
          -1.261185e-02 4.588586e-04 -1.514336e-03
          -1.261186e-02 4.588415e-04 -1.817370e-03
          -1.261186e-02 4.588243e-04 -2.120405e-03
          -1.261187e-02 4.588071e-04 -2.423440e-03
          -1.261200e-02 4.580069e-04 -2.726697e-03
          -1.261200e-02 4.579798e-04 -3.029731e-03
          -1.261497e-02 1.698061e-04 -3.017827e-04
          -1.261513e-02 1.694392e-04 -6.049061e-04
          -1.261514e-02 1.694217e-04 -9.079409e-04
          -1.261514e-02 1.694043e-04 -1.210976e-03
          -1.261515e-02 1.693869e-04 -1.514010e-03
          -1.261515e-02 1.693694e-04 -1.817045e-03
          -1.261206e-02 1.687046e-04 -2.726695e-03
          -1.261206e-02 1.686769e-04 -3.029729e-03
          -1.261206e-02 1.686474e-04 -3.332763e-03
          -1.290904e-02 8.262336e-03 -9.291682e-07
          -1.290942e-02 7.974782e-03 -8.322482e-07
          -1.320540e-02 8.551684e-03 -9.227480e-07
          -1.320575e-02 8.264011e-03 -8.323402e-07
          -1.350177e-02 8.841091e-03 -9.130690e-07
          -1.350208e-02 8.553243e-03 -8.324323e-07
          -1.379811e-02 9.130385e-03 -9.099065e-07
          -1.379842e-02 8.842477e-03 -8.325244e-07
          -1.379842e-02 8.553203e-03 -8.316968e-07
          -1.380134e-02 2.496241e-03 -1.816962e-03
          -1.380135e-02 2.496229e-03 -2.119994e-03
          -1.409448e-02 9.419798e-03 -9.002268e-07
          -1.409475e-02 9.131714e-03 -8.326165e-07
          -1.409476e-02 8.842439e-03 -8.317889e-07
          -1.409019e-02 4.230139e-03 -2.423594e-03
          -1.409766e-02 2.496140e-03 -2.119991e-03
          -1.409771e-02 2.206837e-03 -2.119988e-03
          -1.439108e-02 9.420955e-03 -8.327086e-07
          -1.438701e-02 4.807482e-03 -2.423744e-03
          -1.438645e-02 4.519426e-03 -2.423583e-03
          -1.438640e-02 4.230286e-03 -2.423562e-03
          -1.438719e-02 4.228659e-03 -3.332866e-03
          -1.438720e-02 4.228651e-03 -3.635898e-03
          -1.438720e-02 4.228642e-03 -3.938930e-03
          -1.438643e-02 3.941000e-03 -2.423560e-03
          -1.438646e-02 3.651714e-03 -2.423559e-03
          -1.438648e-02 3.362428e-03 -2.423557e-03
          -1.438651e-02 3.073141e-03 -2.423555e-03
          -1.440129e-02 -6.889961e-04 -2.422449e-03
          -1.440133e-02 -9.783099e-04 -2.422447e-03
          -1.440136e-02 -1.267624e-03 -2.422445e-03
          -1.440139e-02 -1.556938e-03 -2.422444e-03
          -1.469022e-02 9.709892e-03 -8.504338e-07
          -1.468338e-02 4.805722e-03 -3.332871e-03
          -1.468339e-02 4.805710e-03 -3.635904e-03
          -1.468340e-02 4.805804e-03 -3.938937e-03
          -1.468340e-02 4.805792e-03 -4.241970e-03
          -1.468341e-02 4.805781e-03 -4.545003e-03
          -1.468346e-02 4.517215e-03 -2.726797e-03
          -1.468346e-02 4.517203e-03 -3.029830e-03
          -1.468347e-02 4.517191e-03 -3.332863e-03
          -1.468348e-02 4.517179e-03 -3.635896e-03
          -1.468348e-02 4.517167e-03 -3.938929e-03
          -1.468349e-02 4.517155e-03 -4.241963e-03
          -1.468350e-02 4.227943e-03 -2.726793e-03
          -1.468351e-02 4.227931e-03 -3.029826e-03
          -1.468351e-02 4.227919e-03 -3.332860e-03
          -1.468352e-02 4.227907e-03 -3.635893e-03
          -1.468353e-02 4.227895e-03 -3.938926e-03
          -1.468356e-02 3.938635e-03 -3.635890e-03
          -1.469705e-02 -4.023464e-04 -3.332314e-03
          -1.469705e-02 -4.023633e-04 -3.635350e-03
          -1.469705e-02 -4.023803e-04 -3.938387e-03
          -1.469706e-02 -4.023973e-04 -4.241424e-03
          -1.469706e-02 -4.024142e-04 -4.544460e-03
          -1.469711e-02 -6.916958e-04 -3.938384e-03
          -1.469711e-02 -6.917128e-04 -4.241421e-03
          -2.566067e-02 6.225633e-03 -1.002209e-06
          -9.631293e-03 6.254967e-03 -3.636411e-03
          -9.634484e-03 4.527678e-03 -3.333458e-03
          -9.634772e-03 4.240945e-03 -3.030442e-03
          -9.635362e-03 4.239639e-03 -3.333484e-03
          -9.635052e-03 3.954384e-03 -2.727415e-03
          -9.635645e-03 3.952992e-03 -3.030462e-03
          -9.636239e-03 3.951599e-03 -3.333510e-03
          -9.636192e-03 3.666378e-03 -2.727444e-03
          -9.636764e-03 3.664900e-03 -3.030497e-03
          -9.637336e-03 3.663421e-03 -3.333550e-03
          -9.637908e-03 3.661942e-03 -3.636602e-03
          -9.639079e-03 3.373610e-03 -3.636653e-03
          -9.639531e-03 3.372165e-03 -3.939708e-03
          -9.639934e-03 3.370791e-03 -4.242761e-03
          -9.640249e-03 3.085276e-03 -3.636704e-03
          -9.640645e-03 3.083767e-03 -3.939759e-03
          -9.638630e-03 2.807376e-03 -1.818333e-03
          -9.641419e-03 2.796943e-03 -3.636755e-03
          -9.641759e-03 2.795370e-03 -3.939809e-03
          -9.660055e-03 -6.704017e-04 -3.334184e-03
          -9.661956e-03 -9.581925e-04 -3.031084e-03
          -9.661645e-03 -9.602595e-04 -3.334193e-03
          -9.663980e-03 -1.246046e-03 -2.727974e-03
          -9.663604e-03 -1.248085e-03 -3.031087e-03
          -9.663228e-03 -1.250125e-03 -3.334200e-03
          -9.664126e-03 -1.542368e-03 -3.637264e-03
          -9.665393e-03 -1.832579e-03 -3.637215e-03
          -9.664911e-03 -1.834243e-03 -3.940282e-03
          -9.664426e-03 -1.835771e-03 -4.243315e-03
          -9.666660e-03 -2.122789e-03 -3.637165e-03
          -9.667926e-03 -2.412999e-03 -3.637115e-03
          -9.970626e-03 -3.859877e-03 -1.514119e-03
          -1.023199e-02 3.659404e-03 -3.333385e-03
          -1.023240e-02 3.658282e-03 -3.636440e-03
          -1.023344e-02 3.369785e-03 -3.636474e-03
          -1.024323e-02 1.061134e-03 -3.333667e-03
          -1.024335e-02 1.059563e-03 -3.636759e-03
          -1.024471e-02 7.703174e-04 -3.636782e-03
          -1.024608e-02 4.810717e-04 -3.636804e-03
          -1.052041e-02 6.255912e-03 -3.420782e-07
          -1.052057e-02 6.255771e-03 -3.033095e-04
          -1.052072e-02 6.255630e-03 -6.062768e-04
          -1.052088e-02 6.255488e-03 -9.092442e-04
          -1.052104e-02 6.255347e-03 -1.212212e-03
          -1.052352e-02 6.251940e-03 -3.636304e-03
          -1.052845e-02 3.659529e-03 -2.727202e-03
          -1.052881e-02 3.658554e-03 -3.030257e-03
          -1.052916e-02 3.657579e-03 -3.333312e-03
          -1.052952e-02 3.656604e-03 -3.636368e-03
          -1.052983e-02 3.370089e-03 -3.030277e-03
          -1.053016e-02 3.369061e-03 -3.333336e-03
          -1.053049e-02 3.368032e-03 -3.636395e-03
          -1.053115e-02 3.080542e-03 -3.333359e-03
          -1.053145e-02 3.079460e-03 -3.636422e-03
          -1.053242e-02 2.790887e-03 -3.636449e-03
          -1.053347e-02 2.502228e-03 -3.636476e-03
          -1.053956e-02 1.060109e-03 -3.030426e-03
          -1.053967e-02 1.058754e-03 -3.333517e-03
          -1.053978e-02 1.057400e-03 -3.636608e-03
          -1.054091e-02 7.708702e-04 -3.030434e-03
          -1.054097e-02 7.695080e-04 -3.333529e-03
          -1.054104e-02 7.681458e-04 -3.636624e-03
          -1.054228e-02 4.802615e-04 -3.333541e-03
          -1.054230e-02 4.788915e-04 -3.636639e-03
          -1.054358e-02 1.910150e-04 -3.333553e-03
          -1.054356e-02 1.896371e-04 -3.636654e-03
          -1.054487e-02 -9.843626e-05 -3.333556e-03
          -1.055072e-02 -1.548695e-03 -3.636606e-03
          -1.055175e-02 -1.838691e-03 -3.636565e-03
          -1.055277e-02 -2.128688e-03 -3.636523e-03
          -1.055380e-02 -2.418684e-03 -3.636482e-03
          -1.081817e-02 6.254394e-03 -2.667476e-07
          -1.081831e-02 6.254265e-03 -3.032396e-04
          -1.081846e-02 6.254136e-03 -6.062125e-04
          -1.081860e-02 6.254007e-03 -9.091854e-04
          -1.081875e-02 6.253878e-03 -1.212158e-03
          -1.082026e-02 6.251817e-03 -3.030215e-03
          -1.082056e-02 6.251389e-03 -3.333243e-03
          -1.082085e-02 6.250962e-03 -3.636269e-03
          -1.081858e-02 5.966341e-03 -2.340165e-07
          -1.081873e-02 5.966200e-03 -3.032088e-04
          -1.081889e-02 5.966060e-03 -6.061835e-04
          -1.081904e-02 5.965919e-03 -9.091583e-04
          -1.081919e-02 5.965778e-03 -1.212133e-03
          -1.082102e-02 5.963034e-03 -3.333233e-03
          -1.082132e-02 5.962559e-03 -3.636262e-03
          -1.081931e-02 5.677983e-03 -6.061545e-04
          -1.081947e-02 5.677830e-03 -9.091312e-04
          -1.081963e-02 5.677677e-03 -1.212108e-03
          -1.082178e-02 5.674156e-03 -3.636254e-03
          -1.082574e-02 3.657408e-03 -2.727127e-03
          -1.082604e-02 3.656580e-03 -3.030183e-03
          -1.082634e-02 3.655752e-03 -3.333240e-03
          -1.082664e-02 3.654925e-03 -3.636296e-03
          -1.082671e-02 3.368898e-03 -2.727137e-03
          -1.082699e-02 3.368025e-03 -3.030197e-03
          -1.082726e-02 3.367152e-03 -3.333256e-03
          -1.082754e-02 3.366279e-03 -3.636316e-03
          -1.082768e-02 3.080388e-03 -2.727147e-03
          -1.082794e-02 3.079470e-03 -3.030210e-03
          -1.082819e-02 3.078551e-03 -3.333273e-03
          -1.082844e-02 3.077632e-03 -3.636336e-03
          -1.082888e-02 2.790914e-03 -3.030223e-03
          -1.082911e-02 2.789950e-03 -3.333290e-03
          -1.082934e-02 2.788986e-03 -3.636356e-03
          -1.083011e-02 2.501265e-03 -3.333305e-03
          -1.083032e-02 2.500260e-03 -3.636375e-03
          -1.083251e-02 1.923422e-03 -3.333333e-03
          -1.083356e-02 1.635596e-03 -3.030264e-03
          -1.083372e-02 1.634499e-03 -3.333347e-03
          -1.083464e-02 1.347829e-03 -2.727188e-03
          -1.083478e-02 1.346703e-03 -3.030274e-03
          -1.083492e-02 1.345577e-03 -3.333360e-03
          -1.083591e-02 1.058648e-03 -2.727187e-03
          -1.083601e-02 1.057511e-03 -3.030277e-03
          -1.083611e-02 1.056374e-03 -3.333367e-03
          -1.083621e-02 1.055237e-03 -3.636457e-03
          -1.083719e-02 7.694054e-04 -2.727184e-03
          -1.083725e-02 7.682616e-04 -3.030278e-03
          -1.083731e-02 7.671178e-04 -3.333372e-03
          -1.083737e-02 7.659741e-04 -3.636465e-03
          -1.083846e-02 4.801623e-04 -2.727182e-03
          -1.083848e-02 4.790119e-04 -3.030279e-03
          -1.083850e-02 4.778614e-04 -3.333377e-03
          -1.083852e-02 4.767110e-04 -3.636474e-03
          -1.083974e-02 1.909191e-04 -2.727180e-03
          -1.083972e-02 1.897621e-04 -3.030281e-03
          -1.083970e-02 1.886050e-04 -3.333382e-03
          -1.083968e-02 1.874480e-04 -3.636483e-03
          -1.084088e-02 -1.008391e-04 -3.333380e-03
          -1.084669e-02 -1.548532e-03 -3.030162e-03
          -1.084651e-02 -1.549610e-03 -3.333288e-03
          -1.084632e-02 -1.550688e-03 -3.636413e-03
          -1.084769e-02 -1.838541e-03 -3.030117e-03
          -1.084748e-02 -1.839580e-03 -3.333246e-03
          -1.084727e-02 -1.840619e-03 -3.636374e-03
          -1.084869e-02 -2.128549e-03 -3.030072e-03
          -1.084845e-02 -2.129550e-03 -3.333204e-03
          -1.084821e-02 -2.130551e-03 -3.636335e-03
          -1.084968e-02 -2.418558e-03 -3.030027e-03
          -1.084942e-02 -2.419520e-03 -3.333162e-03
          -1.084916e-02 -2.420482e-03 -3.636297e-03
          -1.085251e-02 -2.994816e-03 -1.210865e-03
          -1.085186e-02 -2.997478e-03 -2.423591e-03
          -1.085333e-02 -3.285303e-03 -1.210780e-03
          -1.085261e-02 -3.287878e-03 -2.423513e-03
          -1.085408e-02 -3.575718e-03 -1.210696e-03
          -1.085331e-02 -3.578165e-03 -2.423442e-03
          -1.111624e-02 5.964769e-03 -1.548210e-07
          -1.141360e-02 5.963431e-03 -7.350275e-08
          -1.201319e-02 3.651800e-03 -1.211671e-03
          -1.203834e-02 -7.645505e-03 -2.422283e-03
          -1.230334e-02 7.691006e-03 -8.530121e-08
          -1.230371e-02 7.402417e-03 -4.483014e-08
          -1.260022e-02 7.979008e-03 -7.701176e-08
          -1.260033e-02 7.690337e-03 -4.847782e-08
          -1.261368e-02 1.047420e-03 -1.211264e-03
          -1.261445e-02 7.584762e-04 -9.081346e-04
          -1.261452e-02 7.582451e-04 -1.211218e-03
          -1.261458e-02 7.580140e-04 -1.514302e-03
          -1.261465e-02 7.577828e-04 -1.817385e-03
          -1.261481e-02 7.569589e-04 -2.726629e-03
          -1.261522e-02 4.695427e-04 -6.049965e-04
          -1.261529e-02 4.693062e-04 -9.080842e-04
          -1.261535e-02 4.690697e-04 -1.211172e-03
          -1.261542e-02 4.688331e-04 -1.514260e-03
          -1.261548e-02 4.685966e-04 -1.817347e-03
          -1.261555e-02 4.683601e-04 -2.120435e-03
          -1.261561e-02 4.681235e-04 -2.423523e-03
          -1.261562e-02 4.677583e-04 -2.726603e-03
          -1.261561e-02 4.673499e-04 -3.029680e-03
          -1.261601e-02 1.806200e-04 -3.018499e-04
          -1.261607e-02 1.803781e-04 -6.049418e-04
          -1.261613e-02 1.801361e-04 -9.080337e-04
          -1.261619e-02 1.798942e-04 -1.211126e-03
          -1.261625e-02 1.796523e-04 -1.514217e-03
          -1.261632e-02 1.794103e-04 -1.817309e-03
          -1.261644e-02 1.785577e-04 -2.726576e-03
          -1.261642e-02 1.781464e-04 -3.029657e-03
          -1.261640e-02 1.777351e-04 -3.332737e-03
          -1.289701e-02 8.267117e-03 -7.560755e-08
          -1.289712e-02 7.978416e-03 -4.609839e-08
          -1.319380e-02 8.555287e-03 -7.615220e-08
          -1.319391e-02 8.266555e-03 -4.566771e-08
          -1.349060e-02 8.843518e-03 -7.864604e-08
          -1.349071e-02 8.554756e-03 -4.718613e-08
          -1.378740e-02 9.131808e-03 -8.308939e-08
          -1.378751e-02 8.843016e-03 -5.065398e-08
          -1.378762e-02 8.554224e-03 -1.821809e-08
          -1.379575e-02 2.487874e-03 -1.817459e-03
          -1.379582e-02 2.487726e-03 -2.120517e-03
          -1.408420e-02 9.420160e-03 -8.948258e-08
          -1.408431e-02 9.131338e-03 -5.607156e-08
          -1.408442e-02 8.842515e-03 -2.266006e-08
          -1.408973e-02 4.220125e-03 -2.423670e-03
          -1.409234e-02 2.486482e-03 -2.120478e-03
          -1.409294e-02 2.197194e-03 -2.120434e-03
          -1.438111e-02 9.419719e-03 -6.343920e-08
          -1.438564e-02 4.797032e-03 -2.423681e-03
          -1.438604e-02 4.508054e-03 -2.423659e-03
          -1.438645e-02 4.219077e-03 -2.423637e-03
          -1.438662e-02 4.218657e-03 -3.332796e-03
          -1.438667e-02 4.218512e-03 -3.635851e-03
          -1.438673e-02 4.218367e-03 -3.938905e-03
          -1.438685e-02 3.930099e-03 -2.423614e-03
          -1.438725e-02 3.641122e-03 -2.423592e-03
          -1.438766e-02 3.352144e-03 -2.423570e-03
          -1.438806e-02 3.063166e-03 -2.423548e-03
          -1.439493e-02 -6.975334e-04 -2.423046e-03
          -1.439545e-02 -9.869475e-04 -2.423020e-03
          -1.439596e-02 -1.276362e-03 -2.422994e-03
          -1.439647e-02 -1.565776e-03 -2.422969e-03
          -1.467792e-02 9.708163e-03 -7.298985e-08
          -1.468258e-02 4.795703e-03 -3.332818e-03
          -1.468263e-02 4.795590e-03 -3.635872e-03
          -1.468268e-02 4.795478e-03 -3.938926e-03
          -1.468273e-02 4.795365e-03 -4.241981e-03
          -1.468278e-02 4.795252e-03 -4.545035e-03
          -1.468285e-02 4.506920e-03 -2.726685e-03
          -1.468290e-02 4.506807e-03 -3.029740e-03
          -1.468295e-02 4.506693e-03 -3.332795e-03
          -1.468300e-02 4.506579e-03 -3.635849e-03
          -1.468305e-02 4.506465e-03 -3.938904e-03
          -1.468310e-02 4.506351e-03 -4.241959e-03
          -1.468322e-02 4.217912e-03 -2.726662e-03
          -1.468327e-02 4.217797e-03 -3.029717e-03
          -1.468332e-02 4.217682e-03 -3.332772e-03
          -1.468337e-02 4.217567e-03 -3.635827e-03
          -1.468342e-02 4.217452e-03 -3.938882e-03
          -1.468374e-02 3.928556e-03 -3.635804e-03
          -1.469051e-02 -4.099289e-04 -3.332270e-03
          -1.469051e-02 -4.100845e-04 -3.635354e-03
          -1.469052e-02 -4.102401e-04 -3.938438e-03
          -1.469052e-02 -4.103957e-04 -4.241522e-03
          -1.469053e-02 -4.105513e-04 -4.544605e-03
          -1.469099e-02 -6.996222e-04 -3.938414e-03
          -1.469099e-02 -6.997777e-04 -4.241499e-03
          -2.564950e-02 6.225772e-03 -4.152513e-08
        </DataArray>
      </Points>
      <Cells>
        <DataArray type="Int32" Name="connectivity" format="ascii">
          0 1 2 3 4 5 6 7 8 9 10 11 12 13 14 15 16 17 18 19 20 21 22 23 24 25 26 27 28 29 30 31 32 33 34 35 36 37 38 39 40 41 42 43 44 45 46 47 48 49 50 51 52 53 54 55 56 57 58 59 60 61 62 63 64 65 66 67 68 69 70 71 72 73 74 75 76 77 78 79 80 81 82 83 84 85 86 87 88 89 90 91 92 93 94 95 96 97 98 99 100 101 102 103 104 105 106 107 108 109 110 111 112 113 114 115 116 117 118 119 120 121 122 123 124 125 126 127 128 129 130 131 132 133 134 135 136 137 138 139 140 141 142 143 144 145 146 147 148 149 150 151 152 153 154 155 156 157 158 159 160 161 162 163 164 165 166 167 168 169 170 171 172 173 174 175 176 177 178 179 180 181 182 183 184 185 186 187 188 189 190 191 192 193 194 195 196 197 198 199 200 201 202 203 204 205 206 207 208 209 210 211 212 213 214 215 216 217 218 219 220 221 222 223 224 225 226 227 228 229 230 231 232 233 234 235 236 237 238 239 240 241 242 243 244 245 246 247 248 249 250 251 252 253 254 255 256 257 258 259 260 261 262 263 264 265 266 267 268 269 270 271 272 273 274 275 276 277 278 279 280 281 282 283 284 285 286 287 288 289 290 291 292 293 294 295 296 297 298 299 300 301 302 303 304 305 306 307 308 309 310 311 312 313 314 315 316 317 318 319 320 321 322 323 324 325 326 327 328 329 330 331 332 333 334 335 336 337 338 339 340 341 342 343 344 345 346 347 348 349 350 351 352 353 354 355 356 357 358 359 360 361 362 363 364 365 366 367 368 369 370 371 372 373 374 375 376 377 378 379 380 381 382 383 384 385 386 387 388 389 390 391 392 393 394 395 396 397 398 399 400 401 402 403 404 405 406 407 408 409 410 411 412 413 414 415 416 417 418 419 420 421 422 423 424 425 426 427 428 429 430 431 432 433 434 435 436 437 438 439 440 441 442 443 444 445 446 447 448 449 450 451 452 453 454 455 456 457 458 459 460 461 462 463 464 465 466 467 468 469 470 471 472 473 474 475
        </DataArray>
        <DataArray type="Int32" Name="offsets" format="ascii">
          1 2 3 4 5 6 7 8 9 10 11 12 13 14 15 16 17 18 19 20 21 22 23 24 25 26 27 28 29 30 31 32 33 34 35 36 37 38 39 40 41 42 43 44 45 46 47 48 49 50 51 52 53 54 55 56 57 58 59 60 61 62 63 64 65 66 67 68 69 70 71 72 73 74 75 76 77 78 79 80 81 82 83 84 85 86 87 88 89 90 91 92 93 94 95 96 97 98 99 100 101 102 103 104 105 106 107 108 109 110 111 112 113 114 115 116 117 118 119 120 121 122 123 124 125 126 127 128 129 130 131 132 133 134 135 136 137 138 139 140 141 142 143 144 145 146 147 148 149 150 151 152 153 154 155 156 157 158 159 160 161 162 163 164 165 166 167 168 169 170 171 172 173 174 175 176 177 178 179 180 181 182 183 184 185 186 187 188 189 190 191 192 193 194 195 196 197 198 199 200 201 202 203 204 205 206 207 208 209 210 211 212 213 214 215 216 217 218 219 220 221 222 223 224 225 226 227 228 229 230 231 232 233 234 235 236 237 238 239 240 241 242 243 244 245 246 247 248 249 250 251 252 253 254 255 256 257 258 259 260 261 262 263 264 265 266 267 268 269 270 271 272 273 274 275 276 277 278 279 280 281 282 283 284 285 286 287 288 289 290 291 292 293 294 295 296 297 298 299 300 301 302 303 304 305 306 307 308 309 310 311 312 313 314 315 316 317 318 319 320 321 322 323 324 325 326 327 328 329 330 331 332 333 334 335 336 337 338 339 340 341 342 343 344 345 346 347 348 349 350 351 352 353 354 355 356 357 358 359 360 361 362 363 364 365 366 367 368 369 370 371 372 373 374 375 376 377 378 379 380 381 382 383 384 385 386 387 388 389 390 391 392 393 394 395 396 397 398 399 400 401 402 403 404 405 406 407 408 409 410 411 412 413 414 415 416 417 418 419 420 421 422 423 424 425 426 427 428 429 430 431 432 433 434 435 436 437 438 439 440 441 442 443 444 445 446 447 448 449 450 451 452 453 454 455 456 457 458 459 460 461 462 463 464 465 466 467 468 469 470 471 472 473 474 475 476
        </DataArray>
        <DataArray type="UInt8" Name="types" format="ascii">
          1 1 1 1 1 1 1 1 1 1 1 1 1 1 1 1 1 1 1 1 1 1 1 1 1 1 1 1 1 1 1 1 1 1 1 1 1 1 1 1 1 1 1 1 1 1 1 1 1 1 1 1 1 1 1 1 1 1 1 1 1 1 1 1 1 1 1 1 1 1 1 1 1 1 1 1 1 1 1 1 1 1 1 1 1 1 1 1 1 1 1 1 1 1 1 1 1 1 1 1 1 1 1 1 1 1 1 1 1 1 1 1 1 1 1 1 1 1 1 1 1 1 1 1 1 1 1 1 1 1 1 1 1 1 1 1 1 1 1 1 1 1 1 1 1 1 1 1 1 1 1 1 1 1 1 1 1 1 1 1 1 1 1 1 1 1 1 1 1 1 1 1 1 1 1 1 1 1 1 1 1 1 1 1 1 1 1 1 1 1 1 1 1 1 1 1 1 1 1 1 1 1 1 1 1 1 1 1 1 1 1 1 1 1 1 1 1 1 1 1 1 1 1 1 1 1 1 1 1 1 1 1 1 1 1 1 1 1 1 1 1 1 1 1 1 1 1 1 1 1 1 1 1 1 1 1 1 1 1 1 1 1 1 1 1 1 1 1 1 1 1 1 1 1 1 1 1 1 1 1 1 1 1 1 1 1 1 1 1 1 1 1 1 1 1 1 1 1 1 1 1 1 1 1 1 1 1 1 1 1 1 1 1 1 1 1 1 1 1 1 1 1 1 1 1 1 1 1 1 1 1 1 1 1 1 1 1 1 1 1 1 1 1 1 1 1 1 1 1 1 1 1 1 1 1 1 1 1 1 1 1 1 1 1 1 1 1 1 1 1 1 1 1 1 1 1 1 1 1 1 1 1 1 1 1 1 1 1 1 1 1 1 1 1 1 1 1 1 1 1 1 1 1 1 1 1 1 1 1 1 1 1 1 1 1 1 1 1 1 1 1 1 1 1 1 1 1 1 1 1 1 1 1 1 1 1 1 1 1 1 1 1 1 1 1 1 1 1 1 1 1 1 1 1 1 1 1 1 1 1 1 1 1 1 1 1 1 1 1 1 1 1 1 1 1 1
        </DataArray>
      </Cells>
      <PointData>
        <DataArray type="Int32" Name="ParticleID" format="ascii">
          1984 2187 2220 2221 2253 2254 2255 2287 2288 2289 2290 2324 2325 2326 2358 2359 2386 2392 2393 2799 2832 2833 2865 2866 2867 2902 2936 2937 2938 2970 3004 8607 13169 13170 13204 13475 13476 13510 13544 18292 18293 18294 18295 18296 18304 18607 18608 18609 18610 18642 18643 18644 18677 18678 18712 18746 18914 18915 18916 18948 18949 18950 18983 18984 19017 19018 19051 19222 19256 19290 19324 23732 23733 23734 23735 23736 23742 23743 23744 23766 23767 23768 23769 23770 23777 23778 23802 23803 23804 23812 24047 24048 24049 24050 24081 24082 24083 24084 24115 24116 24117 24118 24150 24151 24152 24185 24186 24253 24286 24287 24319 24320 24321 24353 24354 24355 24356 24387 24388 24389 24390 24421 24422 24423 24424 24455 24456 24457 24458 24491 24660 24661 24662 24694 24695 24696 24728 24729 24730 24762 24763 24764 24824 24828 24858 24862 24892 24896 29206 34646 45802 47132 50762 50796 56168 56202 56988 57021 57022 57023 57024 57027 57054 57055 57056 57057 57058 57059 57060 57061 57062 57087 57088 57089 57090 57091 57092 57095 57096 57097 61574 61608 66980 67014 72386 72420 77792 77826 77860 78580 78581 83198 83232 83266 83818 84021 84055 88638 89190 89224 89258 89261 89262 89263 89292 89326 89360 89394 89836 89870 89904 89938 94044 94633 94634 94635 94636 94637 94665 94666 94667 94668 94669 94670 94699 94700 94701 94702 94703 94736 95245 95246 95247 95248 95249 95281 95282 295732 1984 2187 2220 2221 2253 2254 2255 2287 2288 2289 2290 2324 2325 2326 2358 2359 2386 2392 2393 2799 2832 2833 2865 2866 2867 2902 2936 2937 2938 2970 3004 8607 13169 13170 13204 13475 13476 13510 13544 18292 18293 18294 18295 18296 18304 18607 18608 18609 18610 18642 18643 18644 18677 18678 18712 18746 18914 18915 18916 18948 18949 18950 18983 18984 19017 19018 19051 19222 19256 19290 19324 23732 23733 23734 23735 23736 23742 23743 23744 23766 23767 23768 23769 23770 23777 23778 23802 23803 23804 23812 24047 24048 24049 24050 24081 24082 24083 24084 24115 24116 24117 24118 24150 24151 24152 24185 24186 24253 24286 24287 24319 24320 24321 24353 24354 24355 24356 24387 24388 24389 24390 24421 24422 24423 24424 24455 24456 24457 24458 24491 24660 24661 24662 24694 24695 24696 24728 24729 24730 24762 24763 24764 24824 24828 24858 24862 24892 24896 29206 34646 45802 47132 50762 50796 56168 56202 56988 57021 57022 57023 57024 57027 57054 57055 57056 57057 57058 57059 57060 57061 57062 57087 57088 57089 57090 57091 57092 57095 57096 57097 61574 61608 66980 67014 72386 72420 77792 77826 77860 78580 78581 83198 83232 83266 83818 84021 84055 88638 89190 89224 89258 89261 89262 89263 89292 89326 89360 89394 89836 89870 89904 89938 94044 94633 94634 94635 94636 94637 94665 94666 94667 94668 94669 94670 94699 94700 94701 94702 94703 94736 95245 95246 95247 95248 95249 95281 95282 295732
        </DataArray>
        <DataArray type="Int32" Name="source" format="ascii">
          0 0 0 0 0 0 0 0 0 0 0 0 0 0 0 0 0 0 0 0 0 0 0 0 0 0 0 0 0 0 0 0 0 0 0 0 0 0 0 0 0 0 0 0 0 0 0 0 0 0 0 0 0 0 0 0 0 0 0 0 0 0 0 0 0 0 0 0 0 0 0 0 0 0 0 0 0 0 0 0 0 0 0 0 0 0 0 0 0 0 0 0 0 0 0 0 0 0 0 0 0 0 0 0 0 0 0 0 0 0 0 0 0 0 0 0 0 0 0 0 0 0 0 0 0 0 0 0 0 0 0 0 0 0 0 0 0 0 0 0 0 0 0 0 0 0 0 0 0 0 0 0 0 0 0 0 0 0 0 0 0 0 0 0 0 0 0 0 0 0 0 0 0 0 0 0 0 0 0 0 0 0 0 0 0 0 0 0 0 0 0 0 0 0 0 0 0 0 0 0 0 0 0 0 0 0 0 0 0 0 0 0 0 0 0 0 0 0 0 0 0 0 0 0 0 0 0 0 0 0 0 0 0 0 0 0 0 0 1 1 1 1 1 1 1 1 1 1 1 1 1 1 1 1 1 1 1 1 1 1 1 1 1 1 1 1 1 1 1 1 1 1 1 1 1 1 1 1 1 1 1 1 1 1 1 1 1 1 1 1 1 1 1 1 1 1 1 1 1 1 1 1 1 1 1 1 1 1 1 1 1 1 1 1 1 1 1 1 1 1 1 1 1 1 1 1 1 1 1 1 1 1 1 1 1 1 1 1 1 1 1 1 1 1 1 1 1 1 1 1 1 1 1 1 1 1 1 1 1 1 1 1 1 1 1 1 1 1 1 1 1 1 1 1 1 1 1 1 1 1 1 1 1 1 1 1 1 1 1 1 1 1 1 1 1 1 1 1 1 1 1 1 1 1 1 1 1 1 1 1 1 1 1 1 1 1 1 1 1 1 1 1 1 1 1 1 1 1 1 1 1 1 1 1 1 1 1 1 1 1 1 1 1 1 1 1 1 1 1 1 1 1 1 1 1 1 1 1 1 1 1 1 1 1 1 1 1 1 1 1 1 1 1 1 1 1
        </DataArray>
        <DataArray type="Float32" Name="error_magnitude" format="ascii">
          1.1674548e-05 1.7703649e-05 1.5496025e-05 1.6865908e-05 1.3233789e-05 1.4676336e-05 1.6119788e-05 1.1409292e-05 1.2706659e-05 1.4048174e-05 1.2576054e-05 1.7577504e-05 1.1670595e-05 1.2995432e-05 1.6786735e-05 1.08862405e-05 1.0690135e-05 1.608918e-05 1.0227156e-05 2.0441285e-05 1.841273e-05 2.0362226e-05 1.504972e-05 1.6921787e-05 1.8817747e-05 1.276748e-05 1.4866201e-05 1.0076656e-05 1.13858e-05 1.4869987e-05 1.5021191e-05 1.0068549e-05 1.0307694e-05 1.1297235e-05 1.0426383e-05 1.0044297e-05 1.1283516e-05 1.0681116e-05 1.0210317e-05 1.0002141e-05 1.016401e-05 1.032763e-05 1.0492906e-05 1.0659752e-05 1.0205033e-05 1.0156305e-05 1.1021314e-05 1.1906156e-05 1.2806632e-05 1.0125427e-05 1.1095845e-05 1.2076477e-05 1.0364055e-05 1.1417939e-05 1.0844028e-05 1.0467058e-05 1.0862e-05 1.1956156e-05 1.3088044e-05 1.0225607e-05 1.1407983e-05 1.26145205e-05 1.0974817e-05 1.2241386e-05 1.0670602e-05 1.19779415e-05 1.0700503e-05 1.043074e-05 1.0263163e-05 1.0229402e-05 1.03306675e-05 1.1734945e-05 1.1892729e-05 1.2051527e-05 1.2211298e-05 1.23719765e-05 1.04153705e-05 1.088415e-05 1.1355128e-05 1.0716852e-05 1.0894123e-05 1.1072333e-05 1.125143e-05 1.1431331e-05 1.0153156e-05 1.0675314e-05 1.0151586e-05 1.035044e-05 1.0549951e-05 1.0043763e-05 1.2039017e-05 1.2811026e-05 1.3591363e-05 1.4378534e-05 1.1241888e-05 1.20796485e-05 1.2922534e-05 1.3769418e-05 1.0521676e-05 1.1418767e-05 1.2318006e-05 1.3218862e-05 1.0841193e-05 1.1787709e-05 1.2734428e-05 1.0837871e-05 1.1816713e-05 1.3383551e-05 1.1912274e-05 1.29573245e-05 1.046721e-05 1.15492185e-05 1.2632079e-05 1.206642e-05 1.3011026e-05 1.3977483e-05 1.4961389e-05 1.1524941e-05 1.253248e-05 1.3554094e-05 1.4586661e-05 1.1091585e-05 1.2150217e-05 1.3216153e-05 1.4287621e-05 1.0779245e-05 1.1873419e-05 1.2970266e-05 1.4069015e-05 1.1067188e-05 1.0541852e-05 1.1391507e-05 1.2272335e-05 1.0364126e-05 1.12583e-05 1.2172134e-05 1.0315373e-05 1.123635e-05 1.2167916e-05 1.03972925e-05 1.1326192e-05 1.2259698e-05 1.0411171e-05 1.1009655e-05 1.05919735e-05 1.1228614e-05 1.0934721e-05 1.1528677e-05 1.214756e-05 1.2418878e-05 1.01785035e-05 1.0016033e-05 1.1229744e-05 1.1078123e-05 1.38561445e-05 1.3647548e-05 1.0170659e-05 1.0673488e-05 1.04849605e-05 1.0298074e-05 1.0112919e-05 1.0067967e-05 1.11603085e-05 1.0969392e-05 1.0780156e-05 1.0592692e-05 1.0407096e-05 1.0223469e-05 1.0041918e-05 1.0401752e-05 1.0041173e-05 1.0864588e-05 1.0979121e-05 1.0760882e-05 1.0543517e-05 1.0327082e-05 1.0111635e-05 1.0782538e-05 1.0424771e-05 1.0070837e-05 1.2976428e-05 1.2849454e-05 1.2172734e-05 1.2134453e-05 1.1460038e-05 1.1501928e-05 1.0840147e-05 1.09501625e-05 1.0886716e-05 1.0075245e-05 1.0154612e-05 1.0320814e-05 1.0476135e-05 1.0372803e-05 1.0025601e-05 1.1038564e-05 1.0766436e-05 1.00754e-05 1.0540273e-05 1.1379255e-05 1.1210101e-05 1.0018725e-05 1.0151941e-05 1.0285562e-05 1.09092025e-05 1.0622215e-05 1.0350288e-05 1.0094629e-05 1.0660572e-05 1.0465098e-05 1.028897e-05 1.0133185e-05 1.2445907e-05 1.0050853e-05 1.01478945e-05 1.0351217e-05 1.0448889e-05 1.0546859e-05 1.0312934e-05 1.0411905e-05 1.0511168e-05 1.0610714e-05 1.0710534e-05 1.0810623e-05 1.003603e-05 1.0137451e-05 1.02391405e-05 1.0341091e-05 1.0443296e-05 1.0081466e-05 1.0014558e-05 1.0117852e-05 1.0222202e-05 1.0327575e-05 1.04339415e-05 1.0016369e-05 1.0125058e-05 1.1211061e-05 1.1674548e-05 1.7703649e-05 1.5496025e-05 1.6865908e-05 1.3233789e-05 1.4676336e-05 1.6119788e-05 1.1409292e-05 1.2706659e-05 1.4048174e-05 1.2576054e-05 1.7577504e-05 1.1670595e-05 1.2995432e-05 1.6786735e-05 1.08862405e-05 1.0690135e-05 1.608918e-05 1.0227156e-05 2.0441285e-05 1.841273e-05 2.0362226e-05 1.504972e-05 1.6921787e-05 1.8817747e-05 1.276748e-05 1.4866201e-05 1.0076656e-05 1.13858e-05 1.4869987e-05 1.5021191e-05 1.0068549e-05 1.0307694e-05 1.1297235e-05 1.0426383e-05 1.0044297e-05 1.1283516e-05 1.0681116e-05 1.0210317e-05 1.0002141e-05 1.016401e-05 1.032763e-05 1.0492906e-05 1.0659752e-05 1.0205033e-05 1.0156305e-05 1.1021314e-05 1.1906156e-05 1.2806632e-05 1.0125427e-05 1.1095845e-05 1.2076477e-05 1.0364055e-05 1.1417939e-05 1.0844028e-05 1.0467058e-05 1.0862e-05 1.1956156e-05 1.3088044e-05 1.0225607e-05 1.1407983e-05 1.26145205e-05 1.0974817e-05 1.2241386e-05 1.0670602e-05 1.19779415e-05 1.0700503e-05 1.043074e-05 1.0263163e-05 1.0229402e-05 1.03306675e-05 1.1734945e-05 1.1892729e-05 1.2051527e-05 1.2211298e-05 1.23719765e-05 1.04153705e-05 1.088415e-05 1.1355128e-05 1.0716852e-05 1.0894123e-05 1.1072333e-05 1.125143e-05 1.1431331e-05 1.0153156e-05 1.0675314e-05 1.0151586e-05 1.035044e-05 1.0549951e-05 1.0043763e-05 1.2039017e-05 1.2811026e-05 1.3591363e-05 1.4378534e-05 1.1241888e-05 1.20796485e-05 1.2922534e-05 1.3769418e-05 1.0521676e-05 1.1418767e-05 1.2318006e-05 1.3218862e-05 1.0841193e-05 1.1787709e-05 1.2734428e-05 1.0837871e-05 1.1816713e-05 1.3383551e-05 1.1912274e-05 1.29573245e-05 1.046721e-05 1.15492185e-05 1.2632079e-05 1.206642e-05 1.3011026e-05 1.3977483e-05 1.4961389e-05 1.1524941e-05 1.253248e-05 1.3554094e-05 1.4586661e-05 1.1091585e-05 1.2150217e-05 1.3216153e-05 1.4287621e-05 1.0779245e-05 1.1873419e-05 1.2970266e-05 1.4069015e-05 1.1067188e-05 1.0541852e-05 1.1391507e-05 1.2272335e-05 1.0364126e-05 1.12583e-05 1.2172134e-05 1.0315373e-05 1.123635e-05 1.2167916e-05 1.03972925e-05 1.1326192e-05 1.2259698e-05 1.0411171e-05 1.1009655e-05 1.05919735e-05 1.1228614e-05 1.0934721e-05 1.1528677e-05 1.214756e-05 1.2418878e-05 1.01785035e-05 1.0016033e-05 1.1229744e-05 1.1078123e-05 1.38561445e-05 1.3647548e-05 1.0170659e-05 1.0673488e-05 1.04849605e-05 1.0298074e-05 1.0112919e-05 1.0067967e-05 1.11603085e-05 1.0969392e-05 1.0780156e-05 1.0592692e-05 1.0407096e-05 1.0223469e-05 1.0041918e-05 1.0401752e-05 1.0041173e-05 1.0864588e-05 1.0979121e-05 1.0760882e-05 1.0543517e-05 1.0327082e-05 1.0111635e-05 1.0782538e-05 1.0424771e-05 1.0070837e-05 1.2976428e-05 1.2849454e-05 1.2172734e-05 1.2134453e-05 1.1460038e-05 1.1501928e-05 1.0840147e-05 1.09501625e-05 1.0886716e-05 1.0075245e-05 1.0154612e-05 1.0320814e-05 1.0476135e-05 1.0372803e-05 1.0025601e-05 1.1038564e-05 1.0766436e-05 1.00754e-05 1.0540273e-05 1.1379255e-05 1.1210101e-05 1.0018725e-05 1.0151941e-05 1.0285562e-05 1.09092025e-05 1.0622215e-05 1.0350288e-05 1.0094629e-05 1.0660572e-05 1.0465098e-05 1.028897e-05 1.0133185e-05 1.2445907e-05 1.0050853e-05 1.01478945e-05 1.0351217e-05 1.0448889e-05 1.0546859e-05 1.0312934e-05 1.0411905e-05 1.0511168e-05 1.0610714e-05 1.0710534e-05 1.0810623e-05 1.003603e-05 1.0137451e-05 1.02391405e-05 1.0341091e-05 1.0443296e-05 1.0081466e-05 1.0014558e-05 1.0117852e-05 1.0222202e-05 1.0327575e-05 1.04339415e-05 1.0016369e-05 1.0125058e-05 1.1211061e-05
        </DataArray>
        <DataArray type="Int32" Name="status" format="ascii">
          0 0 0 0 0 0 0 0 0 0 0 0 0 0 0 0 0 0 0 0 0 0 0 0 0 0 0 0 0 0 0 0 0 0 0 0 0 0 0 0 0 0 0 0 0 0 0 0 0 0 0 0 0 0 0 0 0 0 0 0 0 0 0 0 0 0 0 0 0 0 0 0 0 0 0 0 0 0 0 0 0 0 0 0 0 0 0 0 0 0 0 0 0 0 0 0 0 0 0 0 0 0 0 0 0 0 0 0 0 0 0 0 0 0 0 0 0 0 0 0 0 0 0 0 0 0 0 0 0 0 0 0 0 0 0 0 0 0 0 0 0 0 0 0 0 0 0 0 0 0 0 0 0 0 0 0 0 0 0 0 0 0 0 0 0 0 0 0 0 0 0 0 0 0 0 0 0 0 0 0 0 0 0 0 0 0 0 0 0 0 0 0 0 0 0 0 0 0 0 0 0 0 0 0 0 0 0 0 0 0 0 0 0 0 0 0 0 0 0 0 0 0 0 0 0 0 0 0 0 0 0 0 0 0 0 0 0 0 0 0 0 0 0 0 0 0 0 0 0 0 0 0 0 0 0 0 0 0 0 0 0 0 0 0 0 0 0 0 0 0 0 0 0 0 0 0 0 0 0 0 0 0 0 0 0 0 0 0 0 0 0 0 0 0 0 0 0 0 0 0 0 0 0 0 0 0 0 0 0 0 0 0 0 0 0 0 0 0 0 0 0 0 0 0 0 0 0 0 0 0 0 0 0 0 0 0 0 0 0 0 0 0 0 0 0 0 0 0 0 0 0 0 0 0 0 0 0 0 0 0 0 0 0 0 0 0 0 0 0 0 0 0 0 0 0 0 0 0 0 0 0 0 0 0 0 0 0 0 0 0 0 0 0 0 0 0 0 0 0 0 0 0 0 0 0 0 0 0 0 0 0 0 0 0 0 0 0 0 0 0 0 0 0 0 0 0 0 0 0 0 0 0 0 0 0 0 0 0 0 0 0 0 0 0 0 0 0 0 0 0 0 0 0 0 0 0 0 0 0 0 0 0 0 0 0 0 0 0 0 0 0 0 0 0 0 0
        </DataArray>
      </PointData>
    </Piece>
  </UnstructuredGrid>
</VTKFile>
