<?xml version="1.0"?>
<VTKFile type="UnstructuredGrid" version="1.0" byte_order="LittleEndian">
  <UnstructuredGrid>
    <Piece NumberOfPoints="32" NumberOfCells="32">
      <Points>
        <DataArray type="Float32" NumberOfComponents="3" format="ascii">
          -9.826102e-03 -6.863131e-04 -3.334414e-03
          -9.826174e-03 -9.756454e-04 -3.334414e-03
          -1.130051e-02 6.234100e-03 -9.579731e-07
          -1.130340e-02 5.944625e-03 -9.579676e-07
          -1.130057e-02 5.366329e-03 -9.527012e-07
          -1.159688e-02 5.944780e-03 -9.526999e-07
          -1.248712e-02 7.676619e-03 -9.343879e-07
          -1.248716e-02 7.387410e-03 -9.307092e-07
          -1.278365e-02 7.965682e-03 -9.224097e-07
          -1.278367e-02 7.676437e-03 -9.203885e-07
          -1.307999e-02 8.254951e-03 -9.208242e-07
          -1.307999e-02 7.965676e-03 -9.204322e-07
          -1.337631e-02 8.544194e-03 -9.208678e-07
          -1.337632e-02 8.254917e-03 -9.204758e-07
          -1.486075e-02 9.700861e-03 -9.383312e-07
          -2.582756e-02 6.222870e-03 -9.997632e-07
          -9.821872e-03 -6.960484e-04 -3.333731e-03
          -9.822682e-03 -9.856332e-04 -3.333734e-03
          -1.129013e-02 6.237136e-03 -8.720815e-08
          -1.129035e-02 5.948402e-03 -6.829868e-08
          -1.129078e-02 5.370934e-03 -3.047760e-08
          -1.158718e-02 5.947715e-03 -2.558863e-08
          -1.247649e-02 7.679304e-03 -3.708270e-08
          -1.247668e-02 7.390370e-03 -1.498634e-08
          -1.277305e-02 7.967956e-03 -3.541399e-08
          -1.277311e-02 7.678977e-03 -2.031361e-08
          -1.306960e-02 8.256640e-03 -3.483634e-08
          -1.306966e-02 7.967645e-03 -1.922534e-08
          -1.336616e-02 8.545357e-03 -3.527948e-08
          -1.336622e-02 8.256345e-03 -1.915784e-08
          -1.484902e-02 9.700324e-03 -3.436758e-08
          -2.581641e-02 6.223024e-03 -2.125054e-08
        </DataArray>
      </Points>
      <Cells>
        <DataArray type="Int32" Name="connectivity" format="ascii">
          0 1 2 3 4 5 6 7 8 9 10 11 12 13 14 15 16 17 18 19 20 21 22 23 24 25 26 27 28 29 30 31
        </DataArray>
        <DataArray type="Int32" Name="offsets" format="ascii">
          1 2 3 4 5 6 7 8 9 10 11 12 13 14 15 16 17 18 19 20 21 22 23 24 25 26 27 28 29 30 31 32
        </DataArray>
        <DataArray type="UInt8" Name="types" format="ascii">
          1 1 1 1 1 1 1 1 1 1 1 1 1 1 1 1 1 1 1 1 1 1 1 1 1 1 1 1 1 1 1 1
        </DataArray>
      </Cells>
      <PointData>
        <DataArray type="Int32" Name="ParticleID" format="ascii">
          2799 2833 29172 29206 29274 34646 50762 50796 56168 56202 61574 61608 66980 67014 94044 295732 2799 2833 29172 29206 29274 34646 50762 50796 56168 56202 61574 61608 66980 67014 94044 295732
        </DataArray>
        <DataArray type="Int32" Name="source" format="ascii">
          0 0 0 0 0 0 0 0 0 0 0 0 0 0 0 0 1 1 1 1 1 1 1 1 1 1 1 1 1 1 1 1
        </DataArray>
        <DataArray type="Float32" Name="error_magnitude" format="ascii">
          1.0636556e-05 1.0602661e-05 1.085025e-05 1.3616997e-05 1.0854656e-05 1.01735295e-05 1.1003864e-05 1.0930011e-05 1.0884322e-05 1.0899147e-05 1.0556959e-05 1.0555835e-05 1.0256466e-05 1.0240665e-05 1.1779621e-05 1.1192946e-05 1.0636556e-05 1.0602661e-05 1.085025e-05 1.3616997e-05 1.0854656e-05 1.01735295e-05 1.1003864e-05 1.0930011e-05 1.0884322e-05 1.0899147e-05 1.0556959e-05 1.0555835e-05 1.0256466e-05 1.0240665e-05 1.1779621e-05 1.1192946e-05
        </DataArray>
        <DataArray type="Int32" Name="status" format="ascii">
          0 0 0 0 0 0 0 0 0 0 0 0 0 0 0 0 0 0 0 0 0 0 0 0 0 0 0 0 0 0 0 0
        </DataArray>
      </PointData>
    </Piece>
  </UnstructuredGrid>
</VTKFile>
